<svg xmlns="http://www.w3.org/2000/svg" xmlns:xlink="http://www.w3.org/1999/xlink" width="100" zoomAndPan="magnify" viewBox="0 0 75 93.749996" height="125" preserveAspectRatio="xMidYMid meet" version="1.0"><path fill="#000000" d="M 66.707031 60.050781 C 66.707031 60.59375 66.496094 61.109375 66.113281 61.496094 C 65.722656 61.886719 65.203125 62.101562 64.648438 62.101562 L 59.828125 62.078125 L 59.855469 66.882812 C 59.855469 67.441406 59.644531 67.964844 59.253906 68.355469 C 58.867188 68.746094 58.359375 68.957031 57.8125 68.957031 L 57.804688 68.957031 C 56.679688 68.949219 55.761719 68.023438 55.753906 66.886719 L 55.730469 62.058594 L 50.75 62.03125 C 49.617188 62.027344 48.6875 61.109375 48.683594 59.984375 C 48.679688 59.441406 48.890625 58.925781 49.273438 58.539062 C 49.664062 58.148438 50.1875 57.933594 50.742188 57.933594 L 55.710938 57.957031 L 55.6875 52.996094 C 55.683594 52.4375 55.898438 51.917969 56.289062 51.523438 C 56.671875 51.136719 57.183594 50.925781 57.726562 50.925781 C 58.863281 50.929688 59.78125 51.855469 59.785156 52.996094 L 59.8125 57.976562 L 64.640625 58 C 65.773438 58.003906 66.699219 58.925781 66.707031 60.050781 Z M 47.40625 64.394531 L 22.882812 64.394531 C 21.273438 64.394531 19.96875 63.09375 19.96875 61.480469 C 19.96875 60.867188 20.011719 60.265625 20.074219 59.667969 L 6.199219 59.667969 C 4.589844 59.667969 3.285156 58.363281 3.285156 56.753906 C 3.285156 51.535156 6.335938 47.011719 10.75 44.878906 C 8.804688 43.25 7.570312 40.804688 7.570312 38.074219 C 7.570312 33.171875 11.554688 29.1875 16.457031 29.1875 C 21.355469 29.1875 25.34375 33.171875 25.34375 38.074219 C 25.34375 40.800781 24.105469 43.25 22.164062 44.878906 C 23.792969 45.667969 25.234375 46.78125 26.40625 48.132812 C 27.914062 46.925781 29.621094 45.957031 31.480469 45.3125 C 28.148438 43.375 25.898438 39.761719 25.898438 35.636719 C 25.898438 29.472656 30.910156 24.457031 37.074219 24.457031 C 43.238281 24.457031 48.25 29.472656 48.25 35.636719 C 48.25 39.761719 46.003906 43.375 42.664062 45.3125 C 44.527344 45.957031 46.234375 46.925781 47.742188 48.132812 C 48.917969 46.78125 50.355469 45.667969 51.984375 44.878906 C 50.042969 43.25 48.804688 40.804688 48.804688 38.074219 C 48.804688 33.171875 52.792969 29.1875 57.691406 29.1875 C 62.59375 29.1875 66.582031 33.171875 66.582031 38.074219 C 66.582031 40.800781 65.34375 43.25 63.402344 44.878906 C 67.8125 47.011719 70.867188 51.535156 70.867188 56.753906 C 70.867188 57.539062 70.550781 58.253906 70.046875 58.773438 C 69.726562 57.460938 68.941406 56.328125 67.875 55.558594 C 67.285156 50.457031 62.953125 46.496094 57.691406 46.496094 C 54.550781 46.496094 51.742188 47.910156 49.859375 50.136719 C 50.765625 51.160156 51.546875 52.292969 52.1875 53.507812 L 52.191406 54.441406 L 50.757812 54.433594 C 50.316406 54.433594 49.890625 54.488281 49.476562 54.585938 C 49.117188 53.9375 48.707031 53.320312 48.25 52.738281 C 47.609375 51.921875 46.886719 51.175781 46.089844 50.519531 C 43.640625 48.5 40.496094 47.289062 37.074219 47.289062 C 33.648438 47.289062 30.507812 48.5 28.054688 50.519531 C 27.257812 51.175781 26.535156 51.921875 25.894531 52.738281 C 24.957031 53.9375 24.207031 55.289062 23.6875 56.753906 C 23.359375 57.683594 23.125 58.660156 23 59.667969 C 22.921875 60.261719 22.878906 60.867188 22.878906 61.480469 L 45.398438 61.480469 C 45.738281 62.660156 46.453125 63.675781 47.40625 64.394531 Z M 57.691406 44.042969 C 60.992188 44.042969 63.664062 41.371094 63.664062 38.074219 C 63.664062 34.773438 60.992188 32.101562 57.691406 32.101562 C 54.394531 32.101562 51.722656 34.777344 51.722656 38.074219 C 51.722656 41.371094 54.394531 44.042969 57.691406 44.042969 Z M 37.074219 43.898438 C 41.640625 43.898438 45.335938 40.199219 45.335938 35.636719 C 45.335938 31.074219 41.640625 27.371094 37.074219 27.371094 C 32.511719 27.371094 28.8125 31.074219 28.8125 35.636719 C 28.8125 40.199219 32.511719 43.898438 37.074219 43.898438 Z M 16.457031 44.042969 C 19.753906 44.042969 22.429688 41.371094 22.429688 38.074219 C 22.429688 34.773438 19.753906 32.101562 16.457031 32.101562 C 13.160156 32.101562 10.488281 34.777344 10.488281 38.074219 C 10.488281 41.371094 13.160156 44.042969 16.457031 44.042969 Z M 24.292969 50.136719 C 22.410156 47.910156 19.601562 46.496094 16.457031 46.496094 C 10.792969 46.496094 6.199219 51.085938 6.199219 56.753906 L 20.644531 56.753906 C 21.359375 54.269531 22.621094 52.023438 24.292969 50.136719 Z M 24.292969 50.136719 " fill-opacity="1" fill-rule="nonzero"/></svg>