<?xml version="1.0" encoding="utf-8"?>
<!-- Uploaded to: SVG Repo, www.svgrepo.com, Generator: SVG Repo Mixer Tools -->
<svg fill="#000000" width="800px" height="800px" viewBox="-7 0 32 32" version="1.1" xmlns="http://www.w3.org/2000/svg">
<title>comment</title>
<path d="M7.28 24.2c-1.12 0-1.72-1.12-2.2-2-0.2-0.32-0.48-0.92-0.64-1-0.12-0.040-0.32-0.080-0.56-0.080-0.68-0.040-1.68-0.16-2.56-1.44-0.8-1.12-1.68-4.16-1.2-6.84 0.28-1.64 1.040-2.88 2.16-3.64 1.8-1.24 5.080-1.4 6.4-1.4 2.36 0 5.64 0.4 7 1.56 1.36 1.12 1.96 4.040 1.84 6.32-0.080 2.080-0.72 3.64-1.76 4.36-0.64 0.44-1.56 0.68-3 0.68-0.6 0-1.16-0.040-1.76-0.080-0.52-0.040-1-0.040-1.44-0.040-0.8 0-1 0.12-1.040 0.12-0.040 0.12 0.040 0.64 0.12 0.88 0.16 0.68 0.44 2.16-0.96 2.52-0.12 0.040-0.24 0.080-0.4 0.080zM8.68 9.48c-2.44 0-4.48 0.4-5.44 1.080-0.76 0.52-1.24 1.36-1.44 2.52-0.4 2.12 0.28 4.72 0.88 5.6 0.48 0.64 0.8 0.68 1.36 0.72 0.32 0.040 0.68 0.040 1.040 0.2 0.68 0.28 1.12 1.040 1.52 1.76 0.12 0.24 0.36 0.64 0.52 0.88-0.040-0.12-0.040-0.24-0.080-0.32-0.16-0.72-0.4-1.84 0.48-2.56 0.52-0.44 1.36-0.48 2.080-0.48 0.48 0 0.96 0.040 1.52 0.040 0.56 0.040 1.12 0.080 1.64 0.080 1 0 1.68-0.12 2.040-0.36 0.6-0.4 1-1.56 1.040-3.080 0.080-2.28-0.56-4.4-1.24-4.96-0.68-0.52-3-1.12-5.92-1.12z"></path>
</svg>